<?xml version="1.0" encoding="UTF-8" standalone="no"?>
<svg
   width="24"
   height="24"
   viewBox="0 0 24 24"
   fill="none"
   stroke=" #000000"
   stroke-width="2"
   stroke-linecap="round"
   stroke-linejoin="round"
   version="1.1"
   id="svg10"
   xmlns="http://www.w3.org/2000/svg"
   xmlns:svg="http://www.w3.org/2000/svg">
  <defs
     id="defs14" />
  <g
     id="layer2">
    <rect
       style="opacity:1;fill:#ffffff;fill-opacity:1;stroke-width:0;stroke-miterlimit:4;stroke-dasharray:none"
       id="rect1207"
       width="25.602491"
       height="24.664032"
       x="-0.63382661"
       y="-0.12551303" />
  </g>
  <g
     id="layer1"
     style="display:inline">
    <path
       d="m 4.5,16.5 c -1.5,1.26 -2,5 -2,5 0,0 3.74,-0.5 5,-2 0.71,-0.84 0.7,-2.13 -0.09,-2.91 A 2.18,2.18 0 0 0 4.5,16.5 Z"
       id="path2" />
    <path
       d="M 12,15 9,12 A 22,22 0 0 1 11,8.05 12.88,12.88 0 0 1 22,2 c 0,2.72 -0.78,7.5 -6,11 a 22.35,22.35 0 0 1 -4,2 z"
       id="path4" />
    <path
       d="M 9,12 H 4 c 0,0 0.55,-3.03 2,-4 1.62,-1.08 5,0 5,0"
       id="path6" />
    <path
       d="m 12,15 v 5 c 0,0 3.03,-0.55 4,-2 1.08,-1.62 0,-5 0,-5"
       id="path8" />
  </g>
</svg>
